<svg id="Layer_1" data-name="Layer 1" xmlns="http://www.w3.org/2000/svg" viewBox="0 0 30 30"><defs><style>.cls-1{fill:gray;}</style></defs><title>missing</title><path class="cls-1" d="M12.69,17.94V17a4,4,0,0,1,.5-2A6.49,6.49,0,0,1,15,13.2a7.62,7.62,0,0,0,1.67-1.47,2.13,2.13,0,0,0,.4-1.27,1.37,1.37,0,0,0-.58-1.2,2.76,2.76,0,0,0-1.62-.41A9.3,9.3,0,0,0,10.75,10L9.43,7.39a11.52,11.52,0,0,1,5.72-1.51,6.08,6.08,0,0,1,4,1.2,3.9,3.9,0,0,1,1.47,3.19,4.24,4.24,0,0,1-.6,2.3,8.6,8.6,0,0,1-2.3,2.18A7.13,7.13,0,0,0,16.2,16a2,2,0,0,0-.31,1.17v.73Zm-.39,4.13a2,2,0,0,1,.54-1.54A2.21,2.21,0,0,1,14.43,20a2.14,2.14,0,0,1,1.55.53,2,2,0,0,1,.55,1.52,2,2,0,0,1-.56,1.5,2.11,2.11,0,0,1-1.55.55,2.17,2.17,0,0,1-1.57-.54A2,2,0,0,1,12.31,22.07Z"/><path class="cls-1" d="M15,2A13,13,0,1,1,2,15,13,13,0,0,1,15,2m0-2A15,15,0,1,0,30,15,15,15,0,0,0,15,0Z"/></svg>